<?xml version="1.0" encoding="UTF-8"?>
<!DOCTYPE svg PUBLIC "-//W3C//DTD SVG 1.1//EN" "http://www.w3.org/Graphics/SVG/1.1/DTD/svg11.dtd">
<!-- Creator: CorelDRAW -->
<svg xmlns="http://www.w3.org/2000/svg" xml:space="preserve" width="33.8666mm" height="33.8667mm" version="1.1" style="shape-rendering:geometricPrecision; text-rendering:geometricPrecision; image-rendering:optimizeQuality; fill-rule:evenodd; clip-rule:evenodd"
viewBox="0 0 2207.22 2207.23"
 xmlns:xlink="http://www.w3.org/1999/xlink"
 xmlns:xodm="http://www.corel.com/coreldraw/odm/2003">
 <defs>
  <style type="text/css">
   <![CDATA[
    .str0 {stroke:#FEFEFE;stroke-width:13.03;stroke-miterlimit:22.9256}
    .fil1 {fill:#FEFEFE}
    .fil0 {fill:#FFF700}
   ]]>
  </style>
 </defs>
 <g id="Camada_x0020_1">
  <metadata id="CorelCorpID_0Corel-Layer"/>
  <g id="_1827377929632">
   <rect class="fil0" x="0" y="-0" width="2207.21" height="2207.23" rx="610.63" ry="669.49"/>
   <path class="fil1 str0" d="M1103.61 585.37c35.32,0 64.21,28.89 64.21,64.21l0 389.83 389.83 0c35.32,0 64.21,28.89 64.21,64.21 0,35.32 -28.89,64.21 -64.21,64.21l-389.83 0 0 389.83c0,35.32 -28.89,64.21 -64.21,64.21 -35.32,0 -64.21,-28.89 -64.21,-64.21l0 -389.83 -389.83 0c-35.32,0 -64.21,-28.89 -64.21,-64.21 0,-35.32 28.89,-64.21 64.21,-64.21l389.83 0 0 -389.83c0,-35.32 28.89,-64.21 64.21,-64.21z"/>
  </g>
 </g>
</svg>
